<?xml version="1.0" encoding="utf-8"?>
<!-- Generator: Adobe Illustrator 26.0.0, SVG Export Plug-In . SVG Version: 6.00 Build 0)  -->
<svg version="1.1" id="Layer_1" xmlns="http://www.w3.org/2000/svg" xmlns:xlink="http://www.w3.org/1999/xlink" x="0px" y="0px"
	 viewBox="0 0 138.3 145.63" style="enable-background:new 0 0 138.3 145.63;" xml:space="preserve">
<style type="text/css">
	.st0{fill:#010101;}
	.st1{fill:none;}
</style>
<path class="st0" d="M96.75,55.87c0,24.53-3.34,60.1-45.41,44.42C27.97,91.58,6.81,80.39,5.93,55.87
	C4.7,21.73,26.43,8.61,51.34,11.45C100.09,17.01,96.75,42.3,96.75,55.87z"/>
<image style="overflow:visible;" width="868" height="970" xlink:href="../../../Fabio/Fotos/IMG_20220913_184656_720-assets/IMG_20220913_184656_720.png"  transform="matrix(0.4629 0 0 0.4629 -125 135)">
</image>
<path class="st1" d="M96.75,55.87c0,24.53-3.34,60.1-45.41,44.42C27.97,91.58,6.81,80.39,5.93,55.87
	C4.7,21.73,26.43,8.61,51.34,11.45C100.09,17.01,96.75,42.3,96.75,55.87z"/>
</svg>
