<?xml version="1.0" encoding="utf-8"?>
<!-- Generator: Adobe Illustrator 26.0.0, SVG Export Plug-In . SVG Version: 6.00 Build 0)  -->
<svg version="1.1" id="Layer_1" xmlns="http://www.w3.org/2000/svg" xmlns:xlink="http://www.w3.org/1999/xlink" x="0px" y="0px"
	 viewBox="0 0 107 107.59" style="enable-background:new 0 0 107 107.59;" xml:space="preserve">
<style type="text/css">
	.st0{fill:#010101;}
	.st1{fill:none;}
</style>
<path class="st0" d="M98.59,49.21c0,24.53-3.34,60.1-45.41,44.42C29.81,84.92,8.65,73.73,7.77,49.21
	C6.54,15.07,28.28,1.94,53.18,4.78C101.93,10.35,98.59,35.63,98.59,49.21z"/>
<path class="st1" d="M98.59,49.21c0,24.53-3.34,60.1-45.41,44.42C29.81,84.92,8.65,73.73,7.77,49.21
	C6.54,15.07,28.28,1.94,53.18,4.78C101.93,10.35,98.59,35.63,98.59,49.21z"/>
<g>
	<defs>
		<path id="SVGID_1_" d="M98.59,49.21c0,24.53-3.34,60.1-45.41,44.42C29.81,84.92,8.65,73.73,7.77,49.21
			C6.54,15.07,28.28,1.94,53.18,4.78C101.93,10.35,98.59,35.63,98.59,49.21z"/>
	</defs>
	<clipPath id="SVGID_00000145775104528458623200000005725465622878672556_">
		<use xlink:href="#SVGID_1_"  style="overflow:visible;"/>
	</clipPath>
	<g style="clip-path:url(#SVGID_00000145775104528458623200000005725465622878672556_);">
		
			<image style="overflow:visible;" width="868" height="970" xlink:href="fotoperfil.png"  transform="matrix(0.1331 0 0 0.1331 -11.7631 -30.254)">
		</image>
	</g>
</g>
</svg>
