<?xml version="1.0" encoding="utf-8"?>
<!-- Generator: Adobe Illustrator 26.0.0, SVG Export Plug-In . SVG Version: 6.00 Build 0)  -->
<svg version="1.0" id="Layer_1" xmlns="http://www.w3.org/2000/svg" xmlns:xlink="http://www.w3.org/1999/xlink" x="0px" y="0px"
	 viewBox="0 0 138.3 145.63" style="enable-background:new 0 0 138.3 145.63;" xml:space="preserve">
<style type="text/css">
	.st0{fill:#010101;}
</style>
<path class="st0" d="M96.75,55.87c0,24.53-3.34,60.1-45.41,44.42C27.97,91.58,6.81,80.39,5.93,55.87
	C4.7,21.73,26.43,8.61,51.34,11.45C100.09,17.01,96.75,42.3,96.75,55.87z"/>
<g>
	<defs>
		<path id="SVGID_1_" d="M96.75,55.87c0,24.53-3.34,60.1-45.41,44.42C27.97,91.58,6.81,80.39,5.93,55.87
			C4.7,21.73,26.43,8.61,51.34,11.45C100.09,17.01,96.75,42.3,96.75,55.87z"/>
	</defs>
	<clipPath id="SVGID_00000132772569833162491810000009827258985026059678_">
		<use xlink:href="#SVGID_1_"  style="overflow:visible;"/>
	</clipPath>
	
		<g transform="matrix(1 0 0 1 7.629395e-06 0)" style="clip-path:url(#SVGID_00000132772569833162491810000009827258985026059678_);">
		
			<image style="overflow:visible;" width="868" height="970" xlink:href="../../../Fabio/Fotos/IMG_20220913_184656_720-assets/IMG_20220913_184656_720.png"  transform="matrix(0.4629 0 0 0.4629 -125 135)">
		</image>
	</g>
</g>
</svg>
